<svg version="1.2" xmlns="http://www.w3.org/2000/svg" viewBox="0 0 800 800" width="800" height="800">
	<style>
		.s0 { fill: #facc15 } 
	</style>
	<g id="Layer 1">
		<path class="s0" d="m792.19 329.94c-2.22-1.86-22.27-17.1-65.3-17.1q-4.24 0.03-8.48 0.23-4.24 0.19-8.46 0.57-4.23 0.37-8.44 0.91-4.2 0.55-8.39 1.26c-8.15-56.87-55.28-84.37-57.14-85.94l-11.5-6.68-7.42 10.78q-3.5 5.48-6.54 11.23-3.05 5.74-5.61 11.72-2.57 5.98-4.63 12.14-2.07 6.17-3.62 12.49c-7.82 32.34-2.97 62.81 13.36 88.83-19.68 11.15-51.57 13.75-58.25 14.06h-526.86c-3.29 0-6.54 0.64-9.57 1.9-3.03 1.26-5.78 3.11-8.1 5.44-2.31 2.33-4.15 5.09-5.39 8.13-1.24 3.04-1.87 6.29-1.85 9.57q-0.26 17.31 1.06 34.57 1.32 17.26 4.22 34.33 2.9 17.07 7.35 33.8 4.45 16.73 10.42 32.98c18.18 47.57 45.26 82.97 80.07 104.43 39.41 24.16 103.6 37.91 175.94 37.91q12.27 0 24.52-0.56 12.26-0.56 24.48-1.67 12.21-1.12 24.36-2.79 12.16-1.68 24.22-3.9 16.8-3.05 33.28-7.51 16.47-4.45 32.52-10.29 16.04-5.84 31.53-13.02 15.49-7.17 30.31-15.63 12.21-7.1 23.8-15.15 11.6-8.06 22.5-17.02 10.91-8.96 21.06-18.78 10.15-9.81 19.47-20.41c41.92-47.21 66.78-100 84.97-146.88h7.42c45.64 0 73.84-18.22 89.42-33.83q3.87-3.66 7.32-7.72 3.45-4.06 6.44-8.46 3-4.41 5.5-9.11 2.51-4.7 4.49-9.64l3.35-9.66z"/>
		<path class="s0" d="m73.89 369.33h70.48q1.25 0 2.4-0.48 1.14-0.48 2.02-1.35 0.88-0.88 1.36-2.03 0.47-1.15 0.47-2.39v-63.25q0-1.24-0.47-2.39-0.48-1.15-1.36-2.03-0.88-0.88-2.02-1.36-1.15-0.47-2.4-0.47h-70.48q-1.24 0-2.39 0.47-1.15 0.48-2.03 1.36-0.88 0.88-1.35 2.03-0.48 1.15-0.48 2.39v63.19q0.05 1.22 0.54 2.35 0.49 1.13 1.36 2 0.87 0.86 2 1.36 1.12 0.49 2.35 0.54"/>
		<path class="s0" d="m171.09 369.33h70.5q1.25 0 2.4-0.48 1.14-0.48 2.02-1.35 0.88-0.88 1.36-2.03 0.47-1.15 0.47-2.39v-63.25q0-1.24-0.47-2.39-0.48-1.15-1.36-2.03-0.88-0.88-2.02-1.36-1.15-0.47-2.4-0.47h-70.5q-1.24 0-2.39 0.47-1.15 0.48-2.03 1.36-0.87 0.88-1.35 2.03-0.47 1.15-0.48 2.39v63.19q0.05 1.22 0.54 2.35 0.5 1.13 1.36 2 0.87 0.86 2 1.36 1.13 0.49 2.35 0.54"/>
		<path class="s0" d="m270.16 369.33h70.46q1.25 0 2.4-0.48 1.14-0.48 2.02-1.35 0.88-0.88 1.36-2.03 0.47-1.15 0.47-2.39v-63.25q0-1.24-0.47-2.39-0.48-1.15-1.36-2.03-0.88-0.88-2.02-1.36-1.15-0.47-2.4-0.47h-70.46q-1.25 0-2.4 0.47-1.14 0.48-2.02 1.36-0.88 0.88-1.36 2.03-0.47 1.15-0.47 2.39v63.19q-0.04 1.25 0.41 2.42 0.47 1.17 1.35 2.06 0.89 0.88 2.06 1.35 1.17 0.46 2.43 0.42"/>
		<path class="s0" d="m367.75 369.33h70.5q1.24 0 2.39-0.48 1.15-0.48 2.03-1.35 0.88-0.88 1.35-2.03 0.48-1.15 0.48-2.39v-63.25q0-1.24-0.48-2.39-0.47-1.15-1.35-2.03-0.88-0.88-2.03-1.36-1.15-0.47-2.39-0.47h-70.5q-1.24 0-2.39 0.47-1.15 0.48-2.03 1.36-0.88 0.88-1.35 2.03-0.48 1.15-0.48 2.39v63.19q0 1.24 0.48 2.39 0.47 1.14 1.35 2.03 0.88 0.87 2.03 1.35 1.15 0.47 2.39 0.48"/>
		<path class="s0" d="m171.09 279.02h70.5q1.23-0.05 2.36-0.54 1.12-0.5 1.99-1.36 0.87-0.87 1.37-2 0.49-1.13 0.53-2.35v-63.25q0-1.25-0.47-2.4-0.48-1.14-1.36-2.02-0.88-0.88-2.02-1.36-1.15-0.47-2.4-0.47h-70.5q-1.24 0-2.39 0.47-1.15 0.48-2.03 1.36-0.87 0.88-1.35 2.02-0.47 1.15-0.48 2.4v63.18q0.1 1.22 0.6 2.32 0.51 1.11 1.37 1.97 0.86 0.85 1.97 1.36 1.1 0.51 2.31 0.6"/>
		<path class="s0" d="m270.16 279.02h70.46q1.23-0.05 2.36-0.54 1.13-0.5 2-1.36 0.86-0.87 1.36-2 0.49-1.13 0.53-2.35v-63.25q0-1.25-0.47-2.4-0.48-1.14-1.36-2.02-0.88-0.88-2.02-1.36-1.15-0.47-2.4-0.47h-70.46q-1.25 0-2.4 0.47-1.14 0.48-2.02 1.36-0.88 0.88-1.36 2.02-0.47 1.15-0.47 2.4v63.18q0 1.25 0.47 2.39 0.48 1.15 1.36 2.03 0.88 0.88 2.02 1.36 1.15 0.47 2.4 0.47"/>
		<path class="s0" d="m367.75 279.02h70.5q1.23-0.05 2.35-0.54 1.13-0.5 2-1.36 0.87-0.87 1.36-2 0.49-1.13 0.54-2.35v-63.25q-0.05-1.23-0.54-2.36-0.49-1.12-1.36-2-0.87-0.86-2-1.36-1.12-0.49-2.35-0.53h-70.5q-1.24 0-2.39 0.47-1.15 0.48-2.03 1.36-0.88 0.88-1.35 2.02-0.48 1.15-0.48 2.4v63.18q0.05 1.23 0.54 2.36 0.49 1.12 1.36 1.99 0.87 0.87 2 1.36 1.12 0.49 2.35 0.54"/>
		<path class="s0" d="m367.75 188.33h70.5q1.24 0 2.39-0.48 1.15-0.48 2.03-1.35 0.88-0.88 1.35-2.03 0.48-1.15 0.48-2.39v-63.33q-0.05-1.23-0.54-2.35-0.49-1.13-1.36-2-0.87-0.87-2-1.36-1.12-0.49-2.35-0.54h-70.5q-1.24 0-2.39 0.48-1.15 0.47-2.03 1.35-0.88 0.88-1.35 2.03-0.48 1.15-0.48 2.39v63.19q0.05 1.22 0.54 2.35 0.5 1.12 1.36 1.99 0.87 0.87 2 1.37 1.12 0.49 2.35 0.54"/>
		<path class="s0" d="m466.06 369.33h70.5q1.25 0 2.39-0.48 1.15-0.48 2.03-1.35 0.88-0.88 1.36-2.03 0.47-1.15 0.47-2.39v-63.25q0-1.24-0.47-2.39-0.48-1.15-1.36-2.03-0.88-0.88-2.03-1.36-1.14-0.47-2.39-0.47h-70.5q-1.24 0-2.39 0.47-1.15 0.48-2.03 1.36-0.87 0.88-1.35 2.03-0.48 1.15-0.48 2.39v63.19q0.05 1.22 0.54 2.35 0.49 1.13 1.36 2 0.87 0.86 2 1.36 1.12 0.49 2.35 0.54"/>
	</g>
</svg>