<svg version="1.2" xmlns="http://www.w3.org/2000/svg" viewBox="0 0 800 800" width="800" height="800">
	<style>
		.s0 { fill: #facc15 } 
	</style>
	<g id="Layer 1">
		<path class="s0" d="m673.5 546.4c-82.3 109.63-258.03 72.63-370.73 77.93 0 0-19.97 1.14-40.04 4.44 0 0 7.6-3.24 17.3-6.6 79.14-27.37 116.54-32.87 164.64-57.57 90.33-46.27 180.26-147.1 198.56-251.83-34.4 100.73-139 187.43-234.23 222.63-65.17 24.07-183.07 47.47-183.1 47.47q-0.6-0.31-1.2-0.62-0.6-0.32-1.19-0.63-0.6-0.32-1.19-0.64-0.6-0.32-1.19-0.65c-80.16-39-82.5-212.66 63.14-268.63 63.86-24.53 124.9-11.07 193.93-27.5 73.6-17.5 158.87-72.67 193.5-144.8 38.83 115.27 85.5 295.53 1.8 407zm1.4-442.67q-3.49 8.37-7.46 16.51-3.98 8.15-8.43 16.04-4.45 7.9-9.36 15.52-4.9 7.62-10.25 14.93c-15.47-15.95-32.51-30.3-50.85-42.86-18.33-12.55-37.88-23.24-58.35-31.89-20.47-8.66-41.75-15.24-63.53-19.65-21.78-4.42-43.95-6.64-66.17-6.63-184.1 0-333.83 149.73-333.83 333.8-0.01 22.9 2.34 45.73 7.02 68.14 4.67 22.42 11.65 44.29 20.82 65.27 9.17 20.98 20.48 40.96 33.75 59.61 13.27 18.66 28.43 35.9 45.24 51.45l7.33 6.46c-11.13-11.15-11.12-29.21 0.03-40.34 11.14-11.14 29.2-11.13 40.34 0.01 11.14 11.14 11.15 29.2 0.01 40.34-11.13 11.15-29.19 11.16-40.34 0.03l4.96 4.4c14.86 12.56 30.8 23.79 47.62 33.56 16.83 9.77 34.48 18.05 52.75 24.73 18.28 6.67 37.1 11.74 56.26 15.12 19.16 3.38 38.58 5.07 58.04 5.05 175.93 0 320.43-136.93 332.8-309.73 9.13-84.63-15.87-192.1-58.4-319.87z"/>
	</g>
</svg>