<?xml version="1.0" encoding="utf-8"?>
<!-- Generator: Adobe Illustrator 24.0.1, SVG Export Plug-In . SVG Version: 6.00 Build 0)  -->
<svg version="1.1" id="Capa_1" xmlns="http://www.w3.org/2000/svg" xmlns:xlink="http://www.w3.org/1999/xlink" x="0px" y="0px"
	 viewBox="0 0 2834.6 2834.6" style="enable-background:new 0 0 2834.6 2834.6;" xml:space="preserve">
<style type="text/css">
	.st0{fill:#FACC15;}
</style>
<path id="path" class="st0" d="M1417.3,0C635,0,0,635,0,1417.3s635,1417.3,1417.3,1417.3s1417.3-635,1417.3-1417.3
	S2199.7,0,1417.3,0L1417.3,0 M1258.6,1043.1c62.4,59.5,113.4,124.7,158.7,192.8c45.4-68,96.4-133.2,158.7-192.8
	c110.6-99.2,258-172.9,442.2-172.9c314.6,0,572.6,249.4,572.6,555.6s-258,552.8-572.6,552.8c-175.7,8.5-317.5-59.5-422.4-155.9
	c-70.9-65.2-127.6-141.7-178.6-221.1c-51,79.4-107.7,155.9-178.6,221.1c-104.9,96.4-246.6,164.4-422.4,155.9
	c-314.6,0-572.6-246.6-572.6-552.8s258-555.6,572.6-555.6C1000.6,870.2,1148,943.9,1258.6,1043.1L1258.6,1043.1 M439.4,1425.8
	c0,195.6,164.4,357.2,377,357.2l0,0h2.8c130.4,5.7,209.8-31.2,286.3-102c70.9-65.2,133.2-158.7,195.6-263.6
	c-53.9-87.9-110.6-170.1-175.7-229.6c-82.2-76.5-170.1-121.9-309-121.9C603.8,1065.8,439.4,1227.4,439.4,1425.8L439.4,1425.8
	 M1709.3,1187.7c-65.2,59.5-121.9,141.7-175.7,229.6c62.4,104.9,124.7,198.4,195.6,263.6c76.5,70.9,155.9,107.7,286.3,102h2.8l0,0
	c212.6,0,377-161.6,377-357.2c0-198.4-164.4-360-377-360C1879.4,1065.8,1791.5,1111.2,1709.3,1187.7L1709.3,1187.7 M2046.6,1247.2
	V1355h104.9v107.7h-104.9v107.7h-79.4h-31.2v-107.7h-107.7V1355h107.7v-107.7H2046.6 M1026.1,1366.3v85H694.5H635v-85H1026.1"/>
</svg>
