<?xml version="1.0" encoding="utf-8"?>
<!-- Generator: Adobe Illustrator 24.0.1, SVG Export Plug-In . SVG Version: 6.00 Build 0)  -->
<svg version="1.1" id="Capa_1" xmlns="http://www.w3.org/2000/svg" xmlns:xlink="http://www.w3.org/1999/xlink" x="0px" y="0px"
	 viewBox="0 0 104 104" style="enable-background:new 0 0 104 104;" xml:space="preserve">
<style type="text/css">
	.st0{fill:#FACC11;}
</style>
<path class="st0" d="M52,103.3c-28.3,0-51.3-23-51.3-51.3c0-28.3,23-51.3,51.3-51.3c28.3,0,51.3,23,51.3,51.3
	C103.3,80.3,80.3,103.3,52,103.3z M52,3.3C25.1,3.3,3.3,25.1,3.3,52s21.9,48.8,48.8,48.8s48.8-21.9,48.8-48.8S78.9,3.3,52,3.3z"/>
<path class="st0" d="M52,81c-16,0-29-13-29-29s13-29,29-29s29,13,29,29S68,81,52,81z M52,24.5c-15.2,0-27.5,12.3-27.5,27.5
	S36.8,79.5,52,79.5S79.5,67.2,79.5,52S67.2,24.5,52,24.5z"/>
<polygon class="st0" points="52,93.1 46.5,87.5 47.5,86.5 52,90.9 56.5,86.5 57.5,87.5 "/>
<path class="st0" d="M52.8,71h-1.5c0-2.3-7.4-4.9-16.9-4.9h-0.8v-28h0.8c7.5,0,15.3,1.6,17.7,4.5c2.4-2.8,10.1-4.5,17.7-4.5h0.8v28
	h-0.8C60.1,66.1,52.8,68.7,52.8,71z M35.1,64.6c7.3,0.1,14.6,1.7,16.9,4.5c2.3-2.8,9.6-4.4,16.9-4.5v-25c-9.2,0.1-16.2,2.7-16.2,4.9
	h-1.5c0-2.2-7-4.7-16.2-4.9V64.6z"/>
<rect x="51.3" y="44.5" class="st0" width="1.5" height="26.3"/>
<path class="st0" d="M47.7,48.8c-2.6-1-6.2-1.7-10.2-1.9l0.1-1.5c4.2,0.3,8,1,10.7,2L47.7,48.8z"/>
<path class="st0" d="M47.7,53.6c-2.6-1-6.2-1.7-10.2-1.9l0.1-1.5c4.2,0.3,8,1,10.7,2L47.7,53.6z"/>
<path class="st0" d="M47.7,58.4c-2.6-1-6.2-1.7-10.2-1.9l0.1-1.5c4.2,0.3,8,1,10.7,2L47.7,58.4z"/>
<path class="st0" d="M47.7,63.3c-2.6-1-6.2-1.7-10.2-1.9l0.1-1.5c4.2,0.3,8,1,10.7,2L47.7,63.3z"/>
<path class="st0" d="M56.3,58.4L55.7,57c2.7-1,6.5-1.8,10.7-2l0.1,1.5C62.5,56.8,58.8,57.5,56.3,58.4z"/>
<path class="st0" d="M56.3,63.3l-0.5-1.4c2.7-1,6.5-1.8,10.7-2l0.1,1.5C62.5,61.6,58.8,62.3,56.3,63.3z"/>
<polygon class="st0" points="59.3,54.3 59.3,39.7 60.8,39.7 60.8,50.7 63.2,48.3 65.7,50.7 65.7,38.9 67.2,38.9 67.2,54.3 
	63.2,50.4 "/>
<path class="st0" d="M14,45.9l1.4,0.4l0.3-0.1l0.5,0.3l1.6,0.5l0.3-0.9l0.1-0.6l-0.7-0.2l-0.2,0l-0.4-0.1l-0.6-0.1L15.7,45l-1.1-0.3
	L14,44.6l-0.3-0.1l0.3-1.1l0-0.1l0.1-0.2l0.1-0.5l-0.4-0.2l-0.3-0.1l-0.6-0.1l-0.2,0.9l0,0.2l-0.2,0.8l-1.7-0.4L10.6,44l-0.1-0.2
	l-0.7-0.2l-0.5-0.2l0-0.1l0-0.2l0.1-0.5l0.3-0.8l0.1-0.5l-0.6-0.3l-0.7-0.2l-0.3,1.5l0.1,0.2l-0.2,0.3L8,43.8l-0.2,0.7l0.9,0.2
	l0.7,0.2l0.3,0l0.1,0l2.3,0.5l0.1,0.1l0.3,0.1L14,45.9z"/>
<path class="st0" d="M12.9,31.3l-0.1,0.1l-0.3,0.4l0.1,0.1l0.3,0.3l0,0.1l1.3,1.6l0.2,0l0,0.3l1.2,1.6l0,0.1l0.8,0.4l0.8,0.1
	l1.3,0.2l1,0.1l0.1-0.1l0.2,0.2l1.3,0.2l0.4,0.2l0.7-1.1L22,35.9l-0.3-0.4L20.5,34l-0.4-0.6l-0.2-0.1l-0.1-0.2L19,31.8l-0.6-0.4
	l-1.1-0.1l-0.9-0.1l-0.1,0.1l-0.4-0.1L14,30.9l-0.8-0.1L12.9,31.3z M20.3,35.6l-1.7-0.3l-0.6,0l-0.3,0.1l-0.1-0.2l-0.4-0.1L16.7,35
	l-0.2-0.1l-0.8-1l-0.2,0l0.1-0.2L14.2,32l0.3,0.1l0.9,0.2l0.3-0.1l0.1,0.2l1.5,0.2l0.5,0.1l0.4,0.1l1.1,1.4l0.2,0.1l0,0l0.1,0.2
	l1,1.1L20.3,35.6z"/>
<path class="st0" d="M25.2,27.9l0.2,0l0,0.3l0.4,0.5l0.5,0.5l1.1,0l0.7-0.6l0.2-0.5l0.4-1.1l0.1,0.1l0.6,0.5l0.9-1.1l-0.9-0.7
	l-1.2-1.2l-2.1-2.3l-0.3-0.3l-0.2,0l-0.1-0.3l-0.1-0.2l-0.5-0.6l-0.5-0.7l-0.2,0l0.1-0.2l-0.5-0.6l-0.5-0.5l-0.5,0.4L22.2,20
	l0.6,0.8l1.2,1.3l0.8,0.9l1.2,1.2l1.2,1.3l0.6,0.7l-0.5,1.1l-0.2,0.4L27,27.8l-0.2,0l-0.2-0.1l-1.2-1.1l-1-1.3l-0.7-0.8l-0.4-0.4
	L23,23.7l-0.3-0.5l-0.3-0.1L22.2,23L22,22.5l-0.3-0.4l-0.8-0.9L20,22l0.2,0.5l1.6,1.6l0.3,0.3l0.1,0.3l0.7,0.7l1.1,1.1L25.2,27.9z"
	/>
<path class="st0" d="M39.4,20l-0.2-0.4l-1.3-2.8l-0.3-0.4l-0.1-0.6l-1.3-3.2l-0.4-0.9L35.2,12l-0.7,0.3l0.5,1l0.2,0.1l0,0.5l0.5,1.1
	l-0.7-0.5l-0.1,0l-0.5-0.4L32.4,13l-0.9,0.7l0.3,0.7l0.6,1.3l0.4,0.7l1.1,2.7l0.2,0.2l0.1,0.4l0.7,1.9l0.1,0.2l0.1,0.1l0.4,1.1
	l0.6-0.1l0.7-0.4l-0.3-0.8l-0.1-0.2l-0.6-1.3l-0.3-0.4l-0.1-0.5l-1.3-2.9l-0.2-0.1l0,0l0-0.5L33.5,15l0.5,0.3l0.8,0.5l0.6,0.3
	l0.3,0.2l0.3,0.1l0.4,0.3L37,18l0.1,0.2l0,0.1l0.5,1.2l0.5,1.2l0.4,1l0.4-0.2l0.7-0.3l0-0.5L39.4,20z"/>
<path class="st0" d="M48.4,17.9l0.4-1l1.2-2.4l0.2-0.4l-0.1-1l-0.3-0.3l0,0l-1.2-1.3l-0.4-0.6l-0.5-0.4L47.4,10l-1-1.1l-0.7,0.3
	l-0.6,0.2l0.1,0.5l0.1,0.7l0.2,0.2l-0.1,0.3l0.4,3.6l0.1,0.5l0.3,3.1l0,0l0.1,0.9l0.9,0l0.5,0.1L48.4,17.9z M46.8,12.8l-0.3-2
	l0.1,0.1l1.6,2.1l0.3,0.2l0.1,0.3l0.3,0.3l-0.2,0.4l-0.4,0.8l-0.5,1.2l0.1,0.1l-0.2,0.2l-0.5,1.1l0,0l-0.1-0.8L47,14.1l-0.3-0.6
	L46.8,12.8z"/>
<path class="st0" d="M59.9,17l0,0.5l0.1,0.1l-0.1,0.1l0,0.4l-0.1,1.8L60,20l0.2,0l1.1-0.1l0-0.6L61,19.1l0.1-0.1l0-0.9l-0.1-1.3
	l0-0.2l0-3.4l-0.1-0.2l0.1-0.2l0-2.2l0-0.1l0-0.1l0.1-0.5l-0.2-0.2l-1.1-0.2l-0.3,0.8l-0.2,0.6L59,11.4l0.1,0.2l-0.3,0.2L58,13.6
	l0,0.2l-0.1,0.3l-0.1,0.3L57.2,16l0,0.3l-0.2,0.1l-0.3,0.8L56,18.9l0.4,0.4l0.8,0.2l0.3-0.9l0-0.4l0.2-0.1l0.3-0.9l0.3-0.1l0.1,0
	l1,0l0.3-0.1l0,0l0.2,0L59.9,17z M59.3,13.6l0-0.2l0.2,0l0.6-1.6l-0.1,1.5l0,0.3l-0.1,0.7l0,1.5l-0.4,0l-0.9,0.1l0-0.1l0.3-0.9l0,0
	L59.3,13.6z"/>
<path class="st0" d="M73.2,14l-0.6-0.3c-0.2-0.1-0.3-0.2-0.5-0.3c-0.1-0.1-0.3,0-0.3-0.1l-0.2-0.2l-1.2-0.7l-0.6,1l0.1,0.2l0.8,0.4
	c0,0,0.1,0,0.2,0.1l0.1,0l0.3,0.2l-0.2,0.6l-0.5,0.8l-0.2,0.6L69,18.8l-1,1.7l0,0.2l-0.6,0.7l-0.5,1l0.6,0.4l0.4,0.1l0.5,0l0.3-0.9
	l1.2-2.3l0-0.3l0,0l0.5-0.7l0.5-1l0.1-0.2c0-0.1,0.1-0.2,0.1-0.3c0-0.1,0.2-0.4,0.2-0.5l0.5-0.9l0.1-0.3l0.3-0.5l0.4,0.2l0.4,0.2
	l0.1,0.1l0.6,0.3l0.3-0.6l0.2-0.6L73.2,14z"/>
<path class="st0" d="M78.5,22.6l-0.5,0.5l-0.3,0.3l-1.7,2l-0.3,0.4l0,0.3l-0.3,0.1l-1,0.8l0.5,0.4l0.2,0.2l0.6,0.3l0.4-0.4l0.2-0.2
	l0.1-0.2l2.6-2.9l-0.1-0.2l0.3-0.1l0.2-0.3l0.3-0.4l0.5-0.5l1.2-1.3l0.3-0.2l0.7-0.7l-0.6-0.6l-0.5-0.4l-0.4,0.6l0,0.1l-0.3,0.1
	l-1.8,2.1L78.5,22.6z"/>
<path class="st0" d="M89.7,29.1L89.7,29.1l-0.4-0.5l-0.1,0l-0.4,0.2l-0.1,0l-2,0.4l-0.1,0.1l-0.3-0.1l-1.9,0.4l-0.1-0.1L83.6,30
	l-0.4,0.7l-0.7,1.1L82,32.5l0.1,0.1l-0.2,0.1l-0.8,1.1l-0.4,0.3l0.7,1.1l0.1-0.1L82,35l1.9-0.3l0.7-0.1l0.2-0.1l0.2,0l1.5-0.2
	l0.7-0.4l0.6-1l0.5-0.8l-0.1-0.1l0.3-0.3l1.1-1.6l0.5-0.7L89.7,29.1z M82.6,33.8l1-1.4l0.3-0.5l0-0.3l0.2,0l0.3-0.3l0.3-0.4l0.1-0.1
	l1.3-0.3l0.1-0.2l0.2,0.1l2.1-0.5l-0.2,0.2l-0.5,0.7l0,0.3l-0.2,0l-0.9,1.2l-0.3,0.4L86.2,33l-1.8,0.3l-0.2,0.1l0,0l-0.2,0l-1.5,0.4
	L82.6,33.8z"/>
<path class="st0" d="M87.3,46.2l0.4-0.1l2.9-0.9l0.4-0.3l0.6,0l3.4-0.8l0.9-0.2l-0.1-0.6l-0.2-0.8l-1.1,0.3L94.4,43l-0.5,0l-1.2,0.3
	l0.6-0.6l0-0.1l0.4-0.5l1.3-1.7l-0.6-1l-0.7,0.2L92.5,40l-0.8,0.3L89,41l-0.2,0.2l-0.4,0l-1.9,0.5l-0.2,0.1L86,41.8L84.9,42l0.1,0.6
	l0.2,0.8l0.9-0.2l0.2-0.1l1.4-0.4l0.5-0.3l0.5-0.1l3.1-0.8l0.1-0.2l0,0l0.5,0.1l0.7-0.2l-0.4,0.5l-0.6,0.8l-0.4,0.5l-0.2,0.3
	l-0.1,0.2l-0.3,0.3l-1.4,0.4l-0.2,0.1l-0.1,0l-1.3,0.3L86.8,45l-1.1,0.3l0.1,0.5l0.2,0.7l0.5,0L87.3,46.2z"/>
</svg>
