<?xml version="1.0" encoding="utf-8"?>
<!-- Generator: Adobe Illustrator 24.0.1, SVG Export Plug-In . SVG Version: 6.00 Build 0)  -->
<svg version="1.1" id="Capa_1" xmlns="http://www.w3.org/2000/svg" xmlns:xlink="http://www.w3.org/1999/xlink" x="0px" y="0px"
	 viewBox="0 0 841.9 595.3" style="enable-background:new 0 0 841.9 595.3;" xml:space="preserve">
<style type="text/css">
	.st0{fill:#FACC15;}
	.st1{fill-rule:evenodd;clip-rule:evenodd;fill:#FACC15;}
</style>
<g id="badge.-javascript">
	<path class="st0" d="M420.9,591c-78.4,0-152-30.5-207.4-85.9c-55.4-55.4-85.9-129.1-85.9-207.4s30.5-152,85.9-207.4
		C268.9,34.8,342.6,4.3,420.9,4.3c78.4,0,152,30.5,207.4,85.9c55.4,55.4,85.9,129.1,85.9,207.4s-30.5,152-85.9,207.4
		C573,560.5,499.3,591,420.9,591z M420.9,18.6c-153.9,0-279,125.2-279,279c0,153.9,125.2,279,279,279c153.9,0,279-125.2,279-279
		C700,143.8,574.8,18.6,420.9,18.6z"/>
	<path id="Shape" class="st1" d="M279.2,120.8l2.5,3.7l3.3,3.9l0.8,0.8l2,2.5l5.4,7.1l0.6,0.5l0.1,2.1l-1.3,4.1l-1.8,3.4l2.7,3.3
		l5.6-0.2l1.6-7.6l-1.1-1.2l1.5-1.6l0.6-3.4l-0.4-2.6l-9.6-10.3l-2-1.5l0.3-1.1l-14.6-17.4l-3.8-6.2l-2.6-1.5l-5.9,5l2.9,3.5
		l1.7-0.3v1.7l8.9,10.5L279.2,120.8L279.2,120.8z"/>
	<path id="Shape1" class="st1" d="M322.8,113.8l1.9,2l0.9,0.1l-0.2,1l1.4,1.8l6,8.4l1.6-0.1l0.9-0.5l4.2-4.7l-2.5-2.6l-1.7-0.5
		l0.1-0.8l-3.3-4l-5.5-5.6l-0.6-1l-13.2-15.1l-1.2-0.1l-0.2-1.6L303,81l-0.7-0.5l-0.5-0.4l-1.3-2.5l-1.5,0.1l-5.6,3.6l1.9,4.9
		l1.1,3.3l1.1,3.1l1.4,0.6l-0.4,2.2l3.3,10.7l0.7,1.3l0.4,1.7l0.6,1.5l3.6,9.5l0.9,1.4l-0.3,1.2l1.9,4.9l3,9.7l3.4,0.1l4.6-2.1
		l-1.9-5.2l-1.6-1.7l0.2-1.1l-2.1-5.5l1.1-1.4l0.5-0.6l4.1-3.8l0.8-1.8l0.1,0l0.9-0.7L322.8,113.8L322.8,113.8z M307,101.3l-1-0.9
		l0.5-0.8l-3.5-9.4l5.4,6.9l1,1.1l2.4,3.5l5.8,6.8l-1.7,1.6l-3.8,4.1l-0.2-0.5l-1.8-5.1l0,0.1L307,101.3L307,101.3z"/>
	<path id="Shape2" class="st1" d="M341.5,88.4l-6-10.7l-0.6-0.5l0-0.3l-3.3-5.1l-4.5-8.2l-4.3,2l-2.9,2.8l6.4,8.6l2.5,5
		c0.8,1.3,1.9,2.8,2.9,4.1l1.4,1l0.7,2.7l1.9,2.7l-0.1-0.2l7.9,14.1l1.1,0.1l0.3,2l4.5,7.9l2.5,2.9l3-1.2l4-1.7l-0.9-7l-1.1-5.7
		l-1.4-1.3l0.7-1.5l-1.8-12.6l-0.2-0.5c-0.1-0.2-0.2-0.4-0.3-0.5c-0.1-0.1-0.1,0-0.1-0.1l0.3-2.3l-3-13.5c-0.2-0.9-0.3-1.5-0.3-2.3
		l-0.3-2.9c-0.2-1.7-0.4-3.7-0.5-5.2l-0.7-4.5l-7.1,1.3l-0.8,1.9l1.8,8.4l0.9,1.1l0.3,0.5l-0.9,1.2l1.8,8.8l2,7.7l0.1,2.6l1.7,8
		l0.1-0.1l2.1,8.6l-3.9-7.9L341.5,88.4L341.5,88.4z"/>
	<path id="Shape3" class="st1" d="M388,91.4l1.1,2.5l0.8,0.3l-0.5,0.9l0.7,2.2l3,9.9l1.5,0.5l1-0.2l5.6-3l-1.5-3.3l-1.4-1.1l0.4-0.7
		l-1.8-4.9l-3.4-7.1l-0.2-1.1l-7.5-18.6l-1.1-0.5l0.3-1.5l-4.9-11.8l-0.5-0.7l-0.4-0.6l-0.5-2.8l-1.5-0.4l-6.5,1.6l0.2,5.2l-0.1,3.5
		l0.1,3.3l1.1,1l-1.1,2l-0.4,11.2l0.3,1.4l-0.2,1.8l0,1.6L371,92l0.4,1.6l-0.7,1l0.2,5.2l-0.3,10.2l3.1,1.2l5-0.5l-0.1-5.5l-1-2.1
		l0.5-1l-0.2-5.9l1.5-0.9l0.7-0.5l5.1-2.3l1.4-1.4l0.1,0l1.1-0.4L388,91.4L388,91.4z M377.2,74.4l-0.6-1.2l0.7-0.5L377,62.6l2.8,8.3
		l0.6,1.4l1.1,4.1l3.2,8.4l-2.1,1l-4.9,2.6l0-0.6l0-5.4l-0.1,0.1C377.6,82.4,377.2,74.4,377.2,74.4z"/>
	<path id="Shape4" class="st1" d="M412.7,91l0.2,0.9l-2.2,1.1c-0.5,0.8-0.8,1.6-1.3,2.4c-0.7,1.2-1.2,2.1-2,3.3l-1.5,1.4l-1.1,3.1
		l6.8,3.9l2.1-2.8l0.8-2.6l-0.1,0.3c0.2-0.5,0.4-1.2,0.7-1.7l3.1-4.5l4.2-5.5l2.8-4.9l-0.4-6.3l-2.3-1.6l-7.8-6.8l-1.3-0.8l-1.6-2.1
		l-1.6-1.8l2.3-3.3l0.1-0.6l0.8-1.2l4.4-5.6l0.7-1.5l2-2.2l2.1-3.3l-4.9-3.7l-2.4-0.2l-1.8,3.3c-0.1,0.2,0.3,0.6,0.1,1l-1.6,1.1
		l-2,2.9l0.2,0.9l-4,5l-3.8,5.8l0.3,5.1l4,3.7l6.5,5.6l1.6,0.7l2.9,3.2L412.7,91L412.7,91z"/>
	<path id="Shape5" class="st1" d="M432,81.2l2.4,5.5l3.4,3.8l-0.8,1.4l5.3,10.1l0.1,1l2.4,4.6l2.9-1.5l4.5-3.1l-1.6-3.2l-3.7-5.9
		l-3.1-6.7l-2.6-4.9l-0.6-1.7l-1-1.2l-0.7-1.6l-1-2.5l1.2-1.9l1.8-2.6l3.1-4l5.5-6.8l0.6-2.2l1.5-0.8l2.6-3l2.6-3.9l-5.7-4.6
		l-3.1,3.1l-0.1,0.6l-5.2,7.1l0,0.3l-2.3,3.1l-0.2,2l-3.2,2.6l-6.1,8.4l-0.4,5.2L432,81.2L432,81.2z"/>
	<path id="Shape6" class="st1" d="M471.9,86l1.5,7.2l0.2,2l1.5,6.3l0.8,0.7l-0.4,1.3l1.1,7l1.1,3.6l7.3-1.9l0.7-2.3l-1.9-3.4
		l-0.6-3.4l0,0.1l-0.5-2.6l-0.4-0.4l0.3-1l-1.7-6.2c-0.3-0.9-0.7-1.5-1.2-2.3l0.4-1.3c-0.2-1.1-0.8-2.7-1.1-3.9l3-2.4l1.8-1.3
		l3.3-2.3l4.8-3.5l1.8-4.6l-2.9-4.5c-0.1,0-1.4,0-1.5-0.1l0-2.1l-9.7-14.2l-6.9,0.9l-1.5,6.9l-3.6,15.2l-1,1.4l-0.9,4.1l-2.1,9.3
		l-0.8,3.1l0.4,1.2l-2,2.8l-3.8,12.4l5.1,1.8l3.5-0.4l1.6-6.6l-0.1-0.8l1.8-7.9l2.2-8.6L471.9,86L471.9,86z M473.6,78.5l1.5-7.1
		l0.1-0.9l0-0.5l0.1-1.5l1-1.3l0.2-0.8l1.7-6l5.4,9.1l0.5,0.5l1.1,2.4l-1.2,0.9c-1.4,1.2-3.9,3.1-5.4,4.1l-5.2,3.9l-0.6,0.2
		L473.6,78.5L473.6,78.5z"/>
	<path id="Shape7" class="st1" d="M504.1,85.2l-1.9,4.1l-1.2,2.2l-6.8,16.9l0.4,1.6l-1.5,1.2l-3.8,6.3l3.4,1.5l1.6,0.7l3.7,0.3
		l1.2-2.8l0.4-1.5l0.3-1.2l8.4-20.9l-0.6-0.9l1.3-1.3l0.6-2l0.9-3.1l1.8-3.8l4.2-9.8l1.1-1.7l2.6-5.4l-4.8-2.3l-3.6-1.2l-1.2,3.9
		l0.5,0.7l-1.2,1.1l-5.9,15.2C504.4,83.1,504.1,85.2,504.1,85.2z"/>
	<path id="Shape8" class="st1" d="M540,107.6l3.5-0.9l3.7-1.4l3-4.8l-2.8-12l-1.2-1.4l0.4-1.4l-2.5-10.2l-2.7-0.5l-4.2-0.5l-2.6,4.8
		l-1.3,3.1l-6.7,11.6l-0.3,0.3L515.8,112l0.3,1.4l-1.9,1.8l-6.6,9.6l3.8,2.8l3.6,1.8l4.7-9l-0.6-1.6l2.1-1l2.7-5l1-0.3l7.8-2.6
		L540,107.6L540,107.6z M533.1,97.2l0-1.9l2-1.8l1.9-3.4l3-5l1.4,6.9l0.4,0.8l-0.1,1.3l1.1,5.1l-2.1,1l-1.7,1.4l-0.7-0.7l-5.9,2.1
		l-3.3,1L533.1,97.2L533.1,97.2z"/>
	<path id="Shape9" class="st1" d="M580.1,101.4l-3.1-2.1c-0.9-0.7-1.7-1.3-2.7-2.2c-0.5-0.4-1.4-0.4-1.8-0.7l-0.8-1.5l-6-5.2
		l-4.3,5.1l0.2,1.4l4,2.9c0.2,0.1,0.6,0.4,1.2,0.6l0.6-0.1l1.3,1.3l-1.7,2.9l-3.4,3.9l-2,3.3L551,124.1l-7.3,8.8l0.1,1.1l-4.1,3.3
		l-3.8,5l3,3.2l2,1.1l2.7,0.4l3-5l9.4-12.1l0.2-1.8l0.1,0l3.6-3.4l3.8-5l0.8-1.1c0.3-0.5,0.7-1.1,1.1-1.6c0.2-0.4,1.5-2,1.9-2.6
		l3.8-4.7l0.8-1.6l2.5-2.4l2,1.5l1.8,1.6l0.5,0.7l2.9,2.2l2.5-2.9l1.7-3L580.1,101.4L580.1,101.4z"/>
	<path class="st0" d="M420.9,463.6c-91.5,0-166-74.5-166-166c0-91.5,74.5-166,166-166s166,74.5,166,166
		C586.9,389.2,512.5,463.6,420.9,463.6z M420.9,140.2c-86.8,0-157.4,70.6-157.4,157.4c0,86.8,70.6,157.4,157.4,157.4
		c86.8,0,157.4-70.6,157.4-157.4C578.3,210.9,507.7,140.2,420.9,140.2z"/>
	<path id="Shape10" class="st1" d="M468.3,501.9l24.7,31.7l-40.5-19.4l-4.4-22L468.3,501.9L468.3,501.9z"/>
	<path id="Shape11" class="st1" d="M517.5,483.7l31.8,24.6l-44.1-8.8l-9.7-20.3L517.5,483.7z"/>
	<path id="Shape12" class="st1" d="M560.7,453.9l36.9,16l-44.9,2.4l-14.4-17.2L560.7,453.9L560.7,453.9z"/>
	<path id="Shape13" class="st1" d="M595.1,414.3l39.7,6.4l-42.9,13.5L573.7,421L595.1,414.3L595.1,414.3z"/>
	<path id="Shape14" class="st1" d="M618.7,367.4l40-3.6l-38.2,23.7l-20.9-8.2L618.7,367.4z"/>
	<path id="Shape15" class="st1" d="M629.9,316.1l37.9-13.4l-31.2,32.4l-22.3-2.8L629.9,316.1L629.9,316.1z"/>
	<path id="Shape16" class="st1" d="M628.1,263.7l33.4-22.4l-22.2,39.1l-22.3,2.9L628.1,263.7L628.1,263.7z"/>
	<path id="Shape17" class="st1" d="M613.4,213.4l26.8-30l-11.8,43.4l-20.9,8.3L613.4,213.4L613.4,213.4z"/>
	<path id="Shape18" class="st1" d="M234,200l-40.2-2l41.1-18.1l19.6,11L234,200L234,200z"/>
	<path id="Shape19" class="st1" d="M215.8,249.2l-39.4,8l35.4-27.7l21.7,5.8L215.8,249.2L215.8,249.2z"/>
	<path id="Shape20" class="st1" d="M210.3,301.3l-36.2,17.5l27.4-35.6l22.5,0.3L210.3,301.3L210.3,301.3z"/>
	<path id="Shape21" class="st1" d="M217.9,353.2l-30.7,25.9l17.7-41.3l21.8-5.3L217.9,353.2z"/>
	<path id="Shape22" class="st1" d="M238.1,401.7l-23.3,32.7l7-44.4l19.9-10.5L238.1,401.7z"/>
	<path id="Shape23" class="st1" d="M269.6,443.6l-14.5,37.5l-4.2-44.7l16.6-15.1L269.6,443.6z"/>
	<path id="Shape24" class="st1" d="M310.6,476.4l-4.8,39.9L290.6,474l12.4-18.8L310.6,476.4z"/>
	<path id="Shape25" class="st1" d="M358.3,498l5.3,39.9l-25.2-37.2l7.3-21.2L358.3,498L358.3,498z"/>
	<path id="Shape26" class="st1" d="M410,507.1l15,37.3l-33.6-29.8l1.9-22.4L410,507.1L410,507.1z"/>
	<path class="st0" d="M373.7,373.5c-19.7,0-35.8-16-35.8-35.8V310c-1-0.8-3.4-2.1-4.9-2.9c-4.9-2.6-9.4-5.1-9.4-9.5
		c0-4.6,4.6-7.1,9.4-9.7c1.5-0.8,3.9-2.1,4.9-3v-27.4c0-19.7,16-35.8,35.8-35.8v8.6c-15,0-27.2,12.2-27.2,27.2v28.2
		c0,4.6-4.5,7-9.4,9.7c-1,0.6-2.5,1.4-3.7,2.1c1.1,0.7,2.6,1.5,3.6,2c4.8,2.6,9.4,5.1,9.4,9.4v28.7c0,15,12.2,27.2,27.2,27.2V373.5z
		"/>
	<circle id="Oval2" class="st1" cx="421.1" cy="266.4" r="12.7"/>
	<path id="Shape28" class="st1" d="M421.1,303.5h0.2l0.1,0l0.1,0l0.1,0c0.1,0,0.1,0,0.2,0h0c0.1,0,0.1,0,0.2,0l0.1,0l0.1,0l0.1,0
		l0.2,0l0.2,0l0.1,0l0.1,0l0.1,0c0.1,0,0.1,0,0.2,0l0.1,0l0.1,0l0.1,0l0.1,0c0.1,0,0.1,0,0.2,0l0.1,0l0.1,0l0.3,0.1l0.1,0l0.1,0
		l0.1,0l0.1,0l0.3,0.1c0.1,0,0.1,0,0.2,0.1l0.1,0l0.1,0c0.1,0,0.1,0,0.2,0.1l0.2,0.1l0.1,0.1l0.2,0.1l0.1,0.1l0.1,0.1l0.1,0l0.1,0
		c0.2,0.1,0.4,0.2,0.5,0.3l0.2,0.1l0.1,0.1l0.3,0.1l0.1,0.1l0.1,0.1l0.1,0.1l0.1,0.1l0.3,0.2l0.1,0l0.1,0l0.2,0.2l0.2,0.2l0.1,0.1
		l0.1,0.1l0.1,0.1l0.1,0l0.1,0.1l0.1,0l0.1,0.1l0.1,0.1c0,0,0.1,0.1,0.1,0.1c0.1,0.1,0.1,0.1,0.2,0.2l0.1,0.1l0.2,0.2l0.1,0.1
		l0.1,0.1l0.1,0.1l0.1,0.1l0.1,0.1l0,0.1l0.1,0.1l0,0c0,0,0.1,0.1,0.1,0.1l0.1,0.1l0.2,0.2l0.2,0.3l0.1,0.2l0,0.1l0.1,0.1l0,0.1
		c0,0.1,0.1,0.1,0.1,0.2l0.1,0.2l0,0l0,0.1c0,0,0,0.1,0.1,0.1l0,0l0,0.1l0,0.1l0,0.1l0.1,0.1l0.1,0.1l0,0c0,0.1,0.1,0.2,0.1,0.2
		c0,0,0.1,0.1,0.1,0.1l0.1,0.1l0,0c0.1,0.2,0.1,0.3,0.2,0.5l0,0l0,0.1c0.6,1.5,1,3.2,1,4.9v1.4c0,12.9-10.3,23.5-23.1,23.9
		c3.3-3.7,5.9-8.2,7.3-13.1c-5.5-1.4-9.6-6.4-9.6-12.3c0-5.4,3.3-10,8-11.8l0,0l0,0h0c0,0,0.1,0,0.1,0h0l0,0l0,0l0,0l0,0h0
		c0,0,0.1,0,0.1,0l0,0h0l0,0l0.1,0h0v0h0c0,0,0.1,0,0.1,0h0l0,0l0,0l0.1,0l0,0l0,0c0,0,0.1,0,0.1,0l0,0l0,0l0,0l0.1,0h0h0
		c0,0,0.1,0,0.1,0l0,0l0,0l0,0l0.1,0l0,0c0,0,0.1,0,0.1,0h0l0,0l0,0l0.1,0c0,0,0.1,0,0.1,0l0,0h0l0.1,0h0l0,0l0,0l0,0l0,0l0,0h0
		c0,0,0.1,0,0.1,0l0,0l0,0l0.1,0l0,0l0,0h0c0,0,0.1,0,0.1,0l0,0l0,0l0.1,0h0l0,0h0l0,0c0,0,0.1,0,0.1,0l0,0l0,0l0.1,0l0,0h0h0
		c0,0,0.1,0,0.1,0h0l0,0l0.1,0l0,0l0,0h0c0,0,0.1,0,0.1,0h0h0l0,0l0,0h0h0h0c0,0,0.1,0,0.1,0l0,0h0l0,0l0,0h0h0c0,0,0.1,0,0.1,0l0,0
		h0l0,0h0.1l0,0h0c0,0,0.1,0,0.1,0l0,0h0h0h0l0.1,0h0c0,0,0.1,0,0.1,0h0h0l0,0h0.1h0c0,0,0.1,0,0.1,0h0l0,0h0h0.1h0c0,0,0.1,0,0.1,0
		h0.1l0.1,0L421.1,303.5L421.1,303.5L421.1,303.5z"/>
	<path class="st0" d="M468.2,373.5v-8.6c15,0,27.2-12.2,27.2-27.2V309c0-4.4,4.6-6.8,9.4-9.4c1-0.6,2.5-1.3,3.6-2
		c-1.1-0.7-2.6-1.5-3.7-2.1c-4.8-2.6-9.4-5.1-9.4-9.7v-28.2c0-15-12.2-27.2-27.2-27.2v-8.6c19.7,0,35.8,16,35.8,35.8v27.4
		c1,0.8,3.4,2.1,4.9,3c4.8,2.6,9.4,5.1,9.4,9.7c0,4.4-4.6,6.9-9.4,9.5c-1.5,0.8-3.8,2.1-4.9,2.9v27.7
		C503.9,357.4,487.9,373.5,468.2,373.5z"/>
</g>
</svg>
